<svg xmlns="http://www.w3.org/2000/svg" width="64" height="64" viewBox="0 0 64 64" fill="none">
  <defs>
    <linearGradient id="plutus-bg" x1="0" y1="0" x2="1" y2="1">
      <stop offset="0" stop-color="#002C51" />
      <stop offset="1" stop-color="#001f3a" />
    </linearGradient>
  </defs>

  <!-- Background -->
  <rect x="1" y="1" width="62" height="62" rx="14" fill="url(#plutus-bg)" />
  <rect x="1" y="1" width="62" height="62" rx="14" fill="none" stroke="#00C2B9" stroke-opacity="0.2" />

  <!-- Plutus: Pixelated Cornucopia (Horn of Plenty) -->
  <!-- Built from stacked squares to represent data/wealth -->
  <g fill="#00C2B9">
    <!-- Horn opening (wide end) - stacked pixels -->
    <rect x="14" y="14" width="6" height="6" />
    <rect x="20" y="14" width="6" height="6" />
    <rect x="26" y="14" width="6" height="6" />
    <rect x="14" y="20" width="6" height="6" />
    <rect x="20" y="20" width="6" height="6" />
    <rect x="26" y="20" width="6" height="6" />
    <rect x="32" y="20" width="6" height="6" />
    <rect x="14" y="26" width="6" height="6" />
    <rect x="20" y="26" width="6" height="6" />

    <!-- Horn body tapering down -->
    <rect x="26" y="26" width="6" height="6" />
    <rect x="32" y="26" width="6" height="6" />
    <rect x="38" y="26" width="6" height="6" />
    <rect x="32" y="32" width="6" height="6" />
    <rect x="38" y="32" width="6" height="6" />
    <rect x="38" y="38" width="6" height="6" />
    <rect x="44" y="38" width="6" height="6" />
    <rect x="44" y="44" width="6" height="6" />
  </g>
</svg>
