<svg width="1418" height="372" viewBox="0 0 1418 372" fill="none" xmlns="http://www.w3.org/2000/svg">
<path d="M69.4021 295V87.0889H122.266V295H69.4021ZM5.31591 131.093V85.6122H186.352V131.093H5.31591ZM170.524 295L251.74 85.6122H302.831L383.161 295H327.934L267.392 118.984H286.588L224.569 295H170.524ZM219.844 258.379V216.443H335.318V258.379H219.844ZM444.7 210.241V172.439H484.569C493.232 172.439 499.828 170.371 504.356 166.237C509.081 161.905 511.444 156.097 511.444 148.812C511.444 141.725 509.081 136.015 504.356 131.683C499.828 127.155 493.232 124.891 484.569 124.891H444.7V85.6122H491.952C506.128 85.6122 518.532 88.2702 529.164 93.5861C539.992 98.902 548.458 106.187 554.562 115.44C560.665 124.694 563.717 135.523 563.717 147.927C563.717 160.33 560.567 171.257 554.267 180.708C548.163 189.962 539.599 197.246 528.573 202.562C517.547 207.681 504.651 210.241 489.885 210.241H444.7ZM402.763 295V85.6122H455.627V295H402.763ZM516.169 295L455.332 205.22L502.879 193.702L577.302 295H516.169ZM695.563 298.249C679.615 298.249 664.849 295.591 651.263 290.275C637.875 284.762 626.062 277.083 615.824 267.239C605.783 257.395 597.907 245.976 592.198 232.981C586.685 219.79 583.929 205.516 583.929 190.158C583.929 174.605 586.783 160.33 592.493 147.336C598.4 134.145 606.57 122.725 617.005 113.078C627.44 103.233 639.549 95.6534 653.331 90.3375C667.31 84.8247 682.174 82.0683 697.925 82.0683C716.629 82.0683 733.562 85.4154 748.722 92.1095C763.882 98.6067 776.187 107.663 785.638 119.28L750.198 154.719C743.111 146.253 735.334 139.953 726.868 135.818C718.401 131.487 708.557 129.321 697.335 129.321C685.915 129.321 675.677 131.88 666.621 136.999C657.761 141.921 650.673 148.911 645.357 157.968C640.041 167.024 637.383 177.656 637.383 189.863C637.383 202.07 639.844 212.8 644.766 222.054C649.885 231.308 656.776 238.494 665.439 243.613C674.299 248.732 684.439 251.291 695.858 251.291C707.277 251.291 716.925 249.126 724.8 244.794C732.873 240.463 738.976 234.162 743.111 225.893C747.442 217.624 749.608 207.78 749.608 196.36L785.343 219.396L689.951 217.033V173.915H802.767V181.889C802.767 206.894 798.239 228.059 789.182 245.385C780.125 262.711 767.524 275.902 751.38 284.959C735.432 293.819 716.826 298.249 695.563 298.249ZM932.935 298.839C916.79 298.839 901.926 296.083 888.341 290.57C874.755 285.057 862.844 277.379 852.606 267.534C842.565 257.69 834.689 246.172 828.98 232.981C823.27 219.593 820.415 205.22 820.415 189.863C820.415 174.506 823.171 160.33 828.684 147.336C834.394 134.145 842.269 122.627 852.31 112.782C862.352 102.938 874.165 95.3581 887.75 90.0422C901.335 84.5294 916.2 81.773 932.344 81.773C948.489 81.773 963.354 84.5294 976.939 90.0422C990.524 95.3581 1002.34 102.938 1012.38 112.782C1022.42 122.627 1030.2 134.145 1035.71 147.336C1041.42 160.527 1044.27 174.801 1044.27 190.158C1044.27 205.516 1041.42 219.79 1035.71 232.981C1030.2 246.172 1022.42 257.789 1012.38 267.83C1002.34 277.674 990.524 285.353 976.939 290.865C963.551 296.181 948.883 298.839 932.935 298.839ZM932.344 251.587C944.158 251.587 954.396 249.027 963.059 243.908C971.722 238.789 978.416 231.603 983.141 222.349C987.866 213.096 990.229 202.267 990.229 189.863C990.229 180.806 988.851 172.537 986.094 165.056C983.535 157.574 979.695 151.175 974.576 145.859C969.457 140.346 963.354 136.113 956.266 133.16C949.178 130.207 941.204 128.73 932.344 128.73C920.531 128.73 910.293 131.29 901.63 136.409C892.967 141.331 886.273 148.419 881.548 157.672C876.823 166.926 874.46 177.656 874.46 189.863C874.46 199.314 875.74 207.878 878.299 215.557C881.056 223.038 884.993 229.536 890.113 235.048C895.232 240.364 901.335 244.499 908.423 247.452C915.511 250.209 923.485 251.587 932.344 251.587ZM1070.71 295V85.6122H1107.63L1123.58 128.435V295H1070.71ZM1215.13 295L1092.86 139.657L1107.63 85.6122L1230.19 240.955L1215.13 295ZM1215.13 295L1201.54 250.996V85.6122H1254.41V295H1215.13Z" fill="#D9D9D9"/>
<path d="M1328.98 221.497C1328.98 213.342 1335.59 206.73 1343.74 206.73H1417.58V295.329H1328.98V221.497Z" fill="#00C2B9"/>
</svg>
